<svg width="56" height="43" viewBox="0 0 56 43" fill="none" xmlns="http://www.w3.org/2000/svg">
<path d="M32.4965 30.7638C32.4965 30.7638 32.665 41.5555 24.3174 41.5555H7.4444C0.0361755 41.5555 -0.435574 30.7638 7.4444 30.7638C0.0361755 30.7638 -0.435574 19.9721 7.4444 19.9721C-0.949463 12.5207 9.37148 6.03238 14.125 11.0428C9.19265 4.23377 19.6493 0.444354 23.2465 5.90391C22.823 0.444354 28.2281 -0.540257 33.2416 3.55235L32.7966 3.9131C35.2376 1.47213 43.2563 2.80002 43.2563 9.37471L40.9756 11.0428C48.0313 3.98813 55.5783 15.3471 49.7118 19.5014H51.0818C55.9637 19.5014 56.5208 30.7638 49.7118 30.7638H21.1056" stroke="#E95258" stroke-width="2" stroke-miterlimit="10" stroke-linecap="round" stroke-linejoin="round"/>
</svg>
