<svg width="74" height="74" viewBox="0 0 74 74" fill="none" xmlns="http://www.w3.org/2000/svg">
<path d="M43.123 29.5331L43.035 29.85H43.3639H53.2799C54.9459 29.85 56.3674 30.2488 57.3659 31.002C58.3558 31.7489 58.9499 32.858 58.9499 34.336C58.9499 35.7218 58.1125 37.133 56.9779 37.984L56.7975 38.1192L56.9135 38.3126C57.3559 39.0498 57.7659 39.8862 57.7659 40.7C57.7659 42.0649 56.8027 43.3279 55.6634 44.04L55.4862 44.1507L55.5638 44.3448C55.8477 45.0546 55.9899 45.7631 55.9899 46.62C55.9899 48.4128 54.75 49.8189 53.0358 50.5332L52.7885 50.6362L52.9083 50.8758C53.0252 51.1095 53.0299 51.3427 53.0299 51.8C53.0299 52.75 52.5173 53.7973 51.6306 54.613C50.7478 55.4252 49.5119 55.99 48.0999 55.99H34.0399C32.5617 55.99 31.1907 55.3509 29.7739 54.6906C29.5557 54.5889 29.3365 54.4867 29.1155 54.3863L29.0771 54.367C27.7299 53.6934 26.5691 53.1129 25.4099 53.0381V32.2385C28.653 29.7204 32.6343 26.0175 34.2726 21.8474L34.2814 21.8251L34.2857 21.8015L35.7625 13.8267C35.8324 13.6189 35.8971 13.4639 35.9869 13.3291C36.0757 13.196 36.1963 13.0721 36.3903 12.9415C37.6702 12.2324 38.6593 12.09 39.9599 12.09C40.4412 12.09 40.9325 12.1927 41.4015 12.4673C41.8705 12.742 42.3314 13.1969 42.7389 13.9233C43.5584 15.3842 44.1499 17.9224 44.1499 22.2C44.1499 24.398 43.8568 26.8915 43.123 29.5331ZM53.5251 46.817L53.5299 46.7927V46.768V46.472C53.5299 45.5249 53.2496 44.9644 53.0228 44.5108L53.0225 44.5102C52.8024 44.0699 52.6593 43.7744 52.7814 43.2809C52.8325 43.1066 52.9691 42.9553 53.2005 42.7946C53.3533 42.6885 53.5192 42.5958 53.7013 42.4939C53.8074 42.4346 53.9189 42.3723 54.0365 42.3024C54.6456 41.9408 55.3059 41.4319 55.3059 40.404C55.3059 39.4309 54.8934 38.8574 54.5498 38.4184C54.5402 38.4061 54.5307 38.3941 54.5214 38.3821C54.1846 37.9521 54.0104 37.7297 54.1108 37.3701C54.161 37.2245 54.2846 37.0884 54.495 36.9284C54.5993 36.8491 54.7157 36.7705 54.8443 36.6837L54.8444 36.6836C54.9709 36.5982 55.1077 36.5059 55.2429 36.4045C55.5138 36.2013 55.7909 35.9528 55.9991 35.617C56.2095 35.2778 56.3419 34.862 56.3419 34.336C56.3419 33.6989 55.9315 33.1863 55.3707 32.8458C54.8075 32.5038 54.058 32.31 53.2799 32.31H39.9599C39.5727 32.31 39.2695 32.182 39.0637 31.9762C38.8579 31.7704 38.7299 31.4672 38.7299 31.08C38.7299 30.6928 38.8579 30.3895 39.0637 30.1837C39.2695 29.9779 39.5727 29.85 39.9599 29.85H40.2559H40.4486L40.4977 29.6636C41.2396 26.8444 41.6899 24.452 41.6899 22.2C41.6899 19.372 41.3924 17.4972 41.051 16.3213C40.8805 15.734 40.6973 15.3148 40.5304 15.0367C40.4474 14.8984 40.3643 14.788 40.2836 14.7088C40.2432 14.6692 40.1986 14.6327 40.1502 14.6047C40.1041 14.5781 40.0382 14.55 39.9599 14.55H39.9458C39.2164 14.55 38.7452 14.55 38.1233 14.7054L37.9665 14.7446L37.9379 14.9037L36.6059 22.3037L36.6019 22.3256V22.348V22.6021C34.8422 27.6859 30.1784 31.7767 26.4886 34.5809L26.3899 34.656V34.78V50.32V50.5152L26.5793 50.5625C27.7317 50.8506 28.8904 51.4287 30.0801 52.0236L30.1228 52.0449C31.5668 52.767 32.7967 53.382 34.0399 53.382H48.0999C48.73 53.382 49.3337 53.225 49.7881 52.9359C50.2441 52.6457 50.5699 52.2057 50.5699 51.652C50.5699 50.9626 50.4917 50.4977 50.434 50.1552C50.4216 50.0814 50.4102 50.0133 50.4006 49.9499C50.3738 49.7711 50.3643 49.6419 50.3804 49.5203C50.3956 49.4058 50.4354 49.2844 50.5268 49.1292C50.5569 49.0925 50.609 49.048 50.6931 48.9965C50.7824 48.9417 50.8946 48.8869 51.0282 48.8285C51.1405 48.7795 51.2618 48.7304 51.3922 48.6777C51.417 48.6677 51.442 48.6576 51.4674 48.6473C51.6248 48.5836 51.7922 48.5148 51.9594 48.4383C52.6136 48.1392 53.3511 47.6869 53.5251 46.817Z" fill="#E95258" stroke="#32495E" stroke-width="0.5"/>
<path d="M14.8001 32.31H14.5501V32.56V53.28V53.53H14.8001H23.6801H23.9301V53.28V32.56V32.31H23.6801H14.8001ZM23.6801 55.99H14.8001C13.3102 55.99 12.0901 54.7699 12.0901 53.28V32.56C12.0901 31.07 13.3102 29.85 14.8001 29.85H23.6801C25.17 29.85 26.3901 31.07 26.3901 32.56V53.28C26.3901 54.7699 25.17 55.99 23.6801 55.99Z" fill="#E95258" stroke="#32495E" stroke-width="0.5"/>
</svg>
