<svg width="70" height="50" viewBox="0 0 70 50" fill="none" xmlns="http://www.w3.org/2000/svg">
<path d="M68.725 21.9694V49.0687H65.4V43.2992V42.6544L64.7552 42.6493L4.6302 42.1683L3.975 42.163V42.8182V49.0687H0.65V0.65H3.975V9.25V9.9H4.625H11.8855C15.0706 9.90387 18.1242 11.1709 20.3764 13.4231C22.6286 15.6753 23.8956 18.7289 23.8995 21.914V27.8394V28.4894H24.5495H27.75H28.4V27.8394V11.0562H57.8118C60.7052 11.0593 63.4792 12.2101 65.5252 14.2561C67.5712 16.302 68.7219 19.076 68.725 21.9694ZM4.625 13.225H3.97514L3.975 13.8749L3.97192 27.8393L3.97177 28.4894H4.62192H19.9214H20.5714V27.8394V21.9132V21.9125C20.5688 19.6092 19.6526 17.4011 18.024 15.7724C16.3953 14.1438 14.1872 13.2276 11.8839 13.225H11.8832H4.625ZM64.7448 39.3242L65.4 39.3295V38.6742V32.4644V31.8144H64.75H4.625H3.975V32.4644V38.1932V38.8381L4.6198 38.8432L64.7448 39.3242ZM64.75 28.4894H65.4V27.8394V21.9688V21.9682C65.3982 19.9565 64.5983 18.0278 63.1759 16.6054C61.7534 15.1829 59.8247 14.383 57.8131 14.3813H57.8125H32.375H31.725V15.0312V27.8394V28.4894H32.375H64.75Z" fill="#E95258" stroke="#32495E" stroke-width="1.3"/>
</svg>
