<svg width="74" height="74" viewBox="0 0 74 74" fill="none" xmlns="http://www.w3.org/2000/svg">
<path d="M48.973 43.7617L47.9222 43.1031C47.8455 43.0536 47.7595 43.0202 47.6695 43.005C47.5795 42.9897 47.4873 42.9929 47.3986 43.0143C47.31 43.0344 47.2262 43.0718 47.1522 43.1245C47.0782 43.1773 47.0154 43.2442 46.9676 43.3214C45.9176 45.0114 44.453 46.4048 42.713 47.3694C40.9729 48.3339 39.0152 48.8376 37.0257 48.8326C35.0243 48.8386 33.0551 48.3296 31.3074 47.3543C29.5598 46.3791 28.0925 44.9705 27.0467 43.2641C26.9497 43.108 26.7949 42.9966 26.616 42.9543C26.4371 42.912 26.2488 42.9423 26.0921 43.0384L25.0339 43.6914C24.8775 43.7881 24.7658 43.943 24.7235 44.122C24.6811 44.301 24.7116 44.4895 24.8082 44.646C26.0903 46.7331 27.8873 48.4555 30.0268 49.648C32.1662 50.8405 34.5763 51.4631 37.0257 51.4559C39.4598 51.4625 41.8552 50.847 43.9847 49.6678C46.1142 48.4886 47.907 46.7848 49.1931 44.7182C49.2415 44.6409 49.2742 44.5549 49.2893 44.465C49.3044 44.3752 49.3017 44.2832 49.2812 44.1943C49.2608 44.1055 49.223 44.0216 49.1701 43.9474C49.1172 43.8731 49.0502 43.8101 48.973 43.7617Z" fill="#E95258"/>
<path d="M28.2402 30.6359C29.3069 30.6359 30.1716 29.7712 30.1716 28.7045C30.1716 27.6378 29.3069 26.7731 28.2402 26.7731C27.1736 26.7731 26.3088 27.6378 26.3088 28.7045C26.3088 29.7712 27.1736 30.6359 28.2402 30.6359Z" fill="#E95258"/>
<path d="M45.1455 30.6359C46.2122 30.6359 47.0769 29.7712 47.0769 28.7045C47.0769 27.6378 46.2122 26.7731 45.1455 26.7731C44.0788 26.7731 43.2141 27.6378 43.2141 28.7045C43.2141 29.7712 44.0788 30.6359 45.1455 30.6359Z" fill="#E95258"/>
</svg>
